<svg xmlns:xlink="http://www.w3.org/1999/xlink" xmlns="http://www.w3.org/2000/svg" version="1.1" width="60" height="50" viewBox="0 0 130 130" xml:space="preserve"><g transform="translate(0,13.7141)"><g transform="translate(3.8622533,-4.5417422)"><path d="m 101.1423,48.334007 c -0.26217,1.549145 -0.4148,2.829945 -1.45146,4.123033 C 89.18125,65.56628 43.997003,62.23432 29.167981,56.010799 21.536226,52.80786 18.925787,49.973558 17.427369,45.854967 9.176043,58.394957 -1.140027,78.66262 3.749802,87.19737 5.160369,89.33094 9.8699891,94.027638 18.186783,98.336478 41.941508,110.64353 109.94924,107.4601 118.54632,91.50121 122.52315,84.11896 116.84871,68.7425 103.04319,50.973608" style="fill:#ffcc00;"></path></g><path d="M 29.541926,28.911603 C 34.775261,17.487669 54.072721,-3.7272488 67.284354,2.3307178 c 2.524641,1.157631 6.16357,2.956303 6.965124,3.012852 1.379897,0.09735 0.370831,-2.229933 0.935671,-2.810526 0.07115,-0.07313 6.301215,-0.112649 7.862678,0.05206 0.859752,0.09069 -0.366897,6.0998862 0.949176,7.2592297 C 94.03031,18.682793 101.55579,30.582188 100.99454,34.38178 99.393173,45.222856 61.293672,47.44515 41.614489,41.22552 35.119888,39.172896 26.706207,35.101738 29.541926,28.911603" style="fill:#0066cc;"></path></g></svg>